<svg xmlns="http://www.w3.org/2000/svg" viewBox="0 0 64 64" role="img" aria-labelledby="title desc">
  <title id="title">Jazz Progression Trainer favicon</title>
  <desc id="desc">A stylized golden trumpet crossing black and white piano keys.</desc>
  <defs>
    <linearGradient id="bg" x1="8" y1="6" x2="56" y2="58" gradientUnits="userSpaceOnUse">
      <stop offset="0" stop-color="#18333b"/>
      <stop offset="1" stop-color="#09151d"/>
    </linearGradient>
    <linearGradient id="brass" x1="16" y1="18" x2="52" y2="40" gradientUnits="userSpaceOnUse">
      <stop offset="0" stop-color="#f7d66e"/>
      <stop offset="0.55" stop-color="#d79a28"/>
      <stop offset="1" stop-color="#8f5b11"/>
    </linearGradient>
  </defs>

  <rect width="64" height="64" rx="14" fill="url(#bg)"/>
  <rect x="10" y="36" width="44" height="16" rx="3" fill="#f5f1e8"/>
  <rect x="16" y="36" width="2.5" height="16" fill="#cfc5b7"/>
  <rect x="24" y="36" width="2.5" height="16" fill="#cfc5b7"/>
  <rect x="32" y="36" width="2.5" height="16" fill="#cfc5b7"/>
  <rect x="40" y="36" width="2.5" height="16" fill="#cfc5b7"/>
  <rect x="48" y="36" width="2.5" height="16" fill="#cfc5b7"/>

  <rect x="17" y="36" width="4" height="9" rx="1" fill="#111217"/>
  <rect x="25" y="36" width="4" height="9" rx="1" fill="#111217"/>
  <rect x="41" y="36" width="4" height="9" rx="1" fill="#111217"/>
  <rect x="49" y="36" width="4" height="9" rx="1" fill="#111217"/>

  <g fill="url(#brass)" stroke="#f3cf69" stroke-width="0.6" stroke-linejoin="round">
    <path d="M16 31.5c8.6-1.2 18.4-6.5 26.6-15.2l3 3c-7.8 9.1-18.8 15-29.2 16.2z"/>
    <path d="M44.2 18.2l8.5-4.4 1.8 1.7-4.7 8.3-4.8-5.6z"/>
    <path d="M20.2 29.4l3.5 1.6-4.7 6.6-2.8-1.4z"/>
    <rect x="26.2" y="22.8" width="3.4" height="8.4" rx="1.2" transform="rotate(-28 27.9 27)" />
    <rect x="31.2" y="19.6" width="3.4" height="8.4" rx="1.2" transform="rotate(-28 32.9 23.8)" />
    <rect x="36.1" y="16.6" width="3.4" height="8.4" rx="1.2" transform="rotate(-28 37.8 20.8)" />
  </g>

  <path d="M50.5 15.1c1.5-.2 2.8.9 3 2.4" fill="none" stroke="#ffe7a2" stroke-width="1.2" stroke-linecap="round"/>
</svg>
