<svg xmlns="http://www.w3.org/2000/svg" viewBox="0 -13 339 922" fill="currentColor">
  <path d="M18 -5C23 -11 27 -13 32 -13C36 -13 41 -10 41 -10C86 16 122 57 159 82C293 175 339 267 339 336C339 421 273 475 204 480C194 480 183 478 173 475C156 471 138 465 122 454C113 447 96 433 89 433C86 433 84 433 81 435C71 439 65 450 65 460C66 493 75 853 75 883C75 900 62 909 47 909C26 909 2 894 0 867C0 867 6 10 18 -5ZM71 129C71 129 66 219 66 279C66 303 68 321 69 327C75 345 114 378 135 390C149 397 162 400 174 400C219 400 236 351 236 313C236 232 167 151 102 111C96 108 92 106 87 106C74 106 71 121 71 129Z"/>
</svg>
