<svg xmlns="http://www.w3.org/2000/svg" viewBox="0 -86 218 879" fill="currentColor">
  <path d="M183 585C181 585 179 584 178 584C178 584 95 554 61 554C53 554 48 555 48 561V778C48 787 40 793 33 793H16C7 793 0 787 0 778V108C0 99 4 97 12 97L14 98C16 98 18 98 20 99C38 107 111 138 148 138C161 138 170 134 170 124V-70C170 -79 177 -86 186 -86H203C211 -86 218 -79 218 -70V583C218 589 213 593 208 593C207 593 204 593 203 592ZM48 401C48 419 127 453 159 453C166 453 170 451 170 446V312C170 289 96 259 64 259C55 259 48 262 48 267Z"/>
</svg>
