<svg xmlns="http://www.w3.org/2000/svg" viewBox="0 -102 324 907" fill="currentColor">
  <path d="M308 503C317 507 324 518 324 526V618C324 624 320 628 315 628C312 628 311 628 308 627C308 627 282 617 276 615C267 615 257 622 257 632V791C257 799 250 805 239 805C226 805 218 799 218 791V622C217 609 213 592 202 584C186 575 142 557 120 552C108 552 104 567 104 578V734C104 741 95 748 86 748C73 748 65 741 65 734V558C65 540 57 527 49 523C42 519 16 509 16 509C7 506 0 496 0 488V396C0 387 4 384 12 384L14 385C19 385 40 395 45 398L47 399C57 399 65 386 65 376V247C65 233 59 221 51 217C43 215 16 203 16 203C7 201 0 190 0 182V90C0 82 4 78 10 78C12 78 14 80 16 80C16 80 34 87 46 91C47 93 48 93 49 93C59 93 65 78 65 72V-88C65 -96 73 -102 82 -102C95 -102 104 -96 104 -88V93C104 110 111 119 117 121L196 154C198 154 200 155 202 155C212 155 218 139 218 132V-31C218 -39 226 -45 235 -45C250 -45 257 -39 257 -31V154C257 164 263 180 272 184C281 188 308 198 308 198C317 202 324 212 324 220V312C324 319 320 323 315 323C312 323 311 323 308 321L274 308C267 308 257 316 257 332V453C257 462 264 487 274 490ZM218 292C211 266 150 240 120 240C112 240 105 242 104 246C101 251 100 280 100 311C100 351 101 397 104 407C107 429 166 457 199 457C208 457 216 454 218 449C221 442 224 410 224 375C224 340 221 303 218 292Z"/>
</svg>
